<svg width="519" height="100" viewBox="0 0 519 100" fill="none" xmlns="http://www.w3.org/2000/svg">
<path d="M102.076 61.9716C102.076 73.0303 103.782 76.874 109.041 77.7678V79.977C104.579 79.645 99.3959 79.4918 94.9336 79.4918C90.4714 79.4918 85.2127 79.6578 80.9148 79.977V77.7678C86.1861 76.8612 87.8041 73.0175 87.8041 61.9716V29.5492C79.4611 29.5492 75.6435 32.333 73.0521 41.0165H69.2472C70.0562 36.3555 70.3849 30.0472 70.3849 24.6456C73.8738 24.8883 79.9541 25.1309 87.8168 25.1309H102.076C109.534 25.1309 115.69 24.8883 119.255 24.6456C119.331 30.1366 119.9 35.5382 120.709 41.0165H116.739C114.388 32.1798 110.899 29.5492 102.063 29.5492V61.9716H102.076Z" fill="#B7963E"/>
<path d="M144.638 61.9716C144.638 73.0303 146.256 76.874 151.527 77.7678V79.977C147.153 79.645 142.122 79.4918 137.104 79.4918C132.085 79.4918 127.219 79.6578 123.325 79.977V77.7678C128.597 76.8612 130.215 73.0175 130.215 61.9716V42.9702C130.215 31.9116 128.597 28.0679 123.325 27.0847V24.8755C126.41 25.2075 131.112 25.3607 136.219 25.3607C141.806 25.3607 145.864 24.8755 153.651 24.8755C162.082 24.8755 171.234 26.51 171.234 37.4026C171.234 44.5282 166.292 49.6871 157.127 51.8963C162.639 52.637 165.23 54.1055 167.986 59.2645L172.6 67.7819C175.596 73.2729 177.947 76.9506 182.169 77.6912V79.7344H167.341C162.563 79.7344 162.398 79.6578 160.528 76.2099L151.856 60.2477C150.402 57.6299 148.215 54.2715 146.913 53.0456C146.344 53.0456 145.535 53.0456 144.651 52.8796V61.9716H144.638ZM147.229 48.9593C152.665 48.9593 155.977 45.1156 155.977 38.7307C155.977 32.3458 153.145 28.8214 148.607 28.8214C146.585 28.8214 145.447 29.3066 144.638 29.8812V48.7166C145.447 48.8826 146.092 48.9593 147.229 48.9593Z" fill="#B7963E"/>
<path d="M211.509 79.9898C205.593 79.5812 203.317 79.5045 198.375 79.5045C193.432 79.5045 188.401 79.7472 183.382 79.9898V77.7806C188.654 76.874 190.272 73.0303 190.272 61.9844V42.983C190.272 31.9244 188.654 28.0807 183.382 27.0974V24.8883C189.943 25.2969 192.383 25.3735 197.085 25.3735C201.788 25.3735 206.73 25.1309 211.509 24.8883V27.0974C206.326 28.0807 204.619 31.8478 204.619 42.983V61.9844C204.619 73.043 206.326 76.8867 211.509 77.7806V79.9898Z" fill="#B7963E"/>
<path d="M255.689 42.0764C257.964 36.1767 258.52 34.2996 258.52 32.001C258.52 29.2172 257.067 27.7487 253.249 27.008V24.8755C255.929 25.2075 259.405 25.3607 263.134 25.3607C266.863 25.3607 270.921 25.1947 273.753 24.8755V27.008C268.81 27.7487 264.588 35.6021 261.428 43.8769L255.272 60.0051C252.756 66.556 250.734 73.1835 249.115 79.977H236.55L223.669 45.3454C220.509 36.7514 217.349 29.8685 212.811 27.008V24.8755C216.78 25.2075 221.406 25.3607 225.945 25.3607C230.483 25.3607 234.856 25.1947 239.319 24.8755V27.008C235.994 27.3401 234.376 28.8086 234.376 31.1071C234.376 33.4057 235.021 35.3595 237.056 40.9271L246.461 66.4794L255.701 42.0764H255.689Z" fill="#B7963E"/>
<path d="M302.207 79.9898C296.292 79.5812 294.016 79.5045 289.074 79.5045C284.131 79.5045 279.1 79.7472 274.081 79.9898V77.7806C279.353 76.874 280.971 73.0303 280.971 61.9844V42.983C280.971 31.9244 279.353 28.0807 274.081 27.0974V24.8883C280.642 25.2969 283.082 25.3735 287.784 25.3735C292.487 25.3735 297.429 25.1309 302.207 24.8883V27.0974C297.025 28.0807 295.318 31.8478 295.318 42.983V61.9844C295.318 73.043 297.025 76.8867 302.207 77.7806V79.9898Z" fill="#B7963E"/>
<path d="M347.93 66.4794C342.659 76.708 337.476 80.5644 328.968 80.5644C314.861 80.5644 312.914 71.9704 312.914 60.5797V42.9702C312.914 31.9116 311.296 28.0679 306.025 27.0847V24.8755C309.83 25.2075 314.532 25.3607 320.208 25.3607C326.213 25.3607 330.334 25.1947 334.151 24.8755V27.0847C328.968 28.0679 327.262 31.9116 327.262 42.9702V56.4807C327.262 63.8488 328.071 69.2504 335.453 69.2504C340.156 69.2504 343.961 67.1179 347.93 61.8823V42.9702C347.93 31.9116 346.223 28.0679 341.041 27.0847V24.8755C345.819 25.2075 350.445 25.3607 355.552 25.3607C360.659 25.3607 364.717 25.1947 369.167 24.8755V27.0847C363.895 28.0679 362.277 31.9116 362.277 42.9702V61.9716C362.277 73.0303 363.895 76.874 369.167 77.7678V79.977C365.918 79.645 362.277 79.4918 358.548 79.4918C354.415 79.4918 351.419 79.6578 347.93 79.977V66.4666V66.4794Z" fill="#B7963E"/>
<path d="M418.125 43.2256C420.641 37.2494 422.828 31.1838 424.534 24.8883C427.618 25.2203 431.095 25.3735 434.912 25.3735C438.477 25.3735 442.282 25.2075 445.366 24.8883V27.0208C440.184 27.7615 440.184 34.9636 440.184 38.156C440.184 40.6078 440.348 43.2384 440.424 44.7836L441.397 59.2772C442.206 71.2297 444.229 76.7207 448.286 77.9466V79.9898C444.886 79.6578 440.664 79.5045 436.29 79.5045C431.916 79.5045 426.481 79.6705 422.183 79.9898V77.8572C426.152 76.874 428.023 73.7581 428.023 68.1139C428.023 65.6621 427.947 63.1209 427.783 60.6691L426.405 39.3819L421.222 51.6665C417.329 60.8351 414.093 70.3358 411.817 80.0026H402.501L387.837 39.3947L386.295 61.5886C386.131 63.6317 386.055 65.5983 386.055 67.6542C386.055 72.8898 386.864 76.1716 392.54 77.8828V80.0153C389.38 79.6833 385.322 79.5301 381.681 79.5301C378.432 79.5301 374.956 79.6961 371.391 80.0153V77.8828C378.041 77.3081 379.583 71.6639 380.303 61.6652L381.921 39.3181C381.997 37.8496 382.086 35.9596 382.086 34.4017C382.086 29.4088 380.784 27.4422 376.334 27.0336V24.901C379.33 25.233 382.983 25.3863 387.028 25.3863C391.073 25.3863 394.727 25.2203 398.051 24.901C399.1 30.392 400.807 35.8703 402.678 41.1059L410.048 62.3164L418.15 43.2384L418.125 43.2256Z" fill="#B7963E"/>
<path d="M22.0458 49.9936C22.0458 47.0949 24.3718 44.758 27.2286 44.758C30.0855 44.758 32.4114 47.1077 32.4114 49.9936C32.4114 52.8796 30.0855 55.2292 27.2286 55.2292C24.3718 55.2292 22.0458 52.8796 22.0458 49.9936Z" fill="#B7963E"/>
<path d="M497.321 50.1085C497.321 47.2098 494.995 44.8602 492.125 44.8602C489.256 44.8602 486.93 47.2098 486.93 50.1085C486.93 53.0073 489.256 55.3569 492.125 55.3569C494.995 55.3569 497.321 53.0073 497.321 50.1085Z" fill="#B7963E"/>
<path d="M491.051 20.8019V0.114928L27.9239 0V20.687C12.4387 21.2489 0 34.1591 0 49.9425C0 65.726 12.4387 78.6362 27.9365 79.1981V99.8851L491.063 100V79.313C506.561 78.7511 519 65.8537 519 50.0575C519 34.2613 506.561 21.3638 491.063 20.8019H491.051ZM490.014 77.2188H488.965V97.893L30.0223 97.7781V77.1038H28.9731C14.1452 77.1038 2.08576 64.9215 2.08576 49.9425C2.08576 34.9636 14.1452 22.7813 28.9731 22.7813H30.0223V2.10701L488.965 2.22194V22.8962H490.014C504.842 22.8962 516.902 35.0785 516.902 50.0575C516.902 65.0364 504.842 77.2188 490.014 77.2188Z" fill="#B7963E"/>
</svg>
